<?xml version="1.0" encoding="utf-8"?>
<!-- Generator: Adobe Illustrator 21.0.2, SVG Export Plug-In . SVG Version: 6.00 Build 0)  -->
<svg version="1.1" id="Layer_1" xmlns="http://www.w3.org/2000/svg" xmlns:xlink="http://www.w3.org/1999/xlink" x="0px" y="0px"
	 viewBox="0 0 1935 491" style="enable-background:new 0 0 1935 491;" xml:space="preserve">
<style type="text/css">
	.st0{fill:#FF00F6;}
	.st1{fill:#FFFFFF;}
	.st2{fill:#FF9600;}
	.st3{fill:#FFCC00;}
	.st4{fill:#212221;}
</style>
<g>
	<g>
		<path class="st3" d="M252.1,393.9c32.6,0,61.8-9.8,87.9-29.3s43.9-44.6,53.7-75.2c10.4-31.9,9.4-64.8-2.9-98.6
			c-7.2-19.5-18.1-36.6-32.7-51.3s-31.7-25.6-51.3-32.7c-33.9-12.4-67.1-13.3-99.6-2.9c-29.9,9.8-54.7,27.7-74.2,53.7
			c-19.5,26-29.3,55.3-29.3,87.9H9.9c0-52.1,15.1-99.1,45.4-141.1S124.8,33.3,173,17c50.8-17.6,102.9-18.2,156.3-2
			c36.5,11.7,68.2,31.1,95.2,58.1c27,27,46.4,58.8,58.1,95.2c16.3,53.4,15.6,105.5-2,156.3c-16.3,48.2-45.4,87.4-87.4,117.7
			s-89,45.4-141.1,45.4V393.9z M26.5,334.4v59.6H87v-59.6H26.5z M87,393.9v72.3h72.3v-72.3H87z M159.3,301.2v92.8h92.8v-92.8H159.3z
			"/>
	</g>
	<g>
		<path class="st4" d="M625.9,129.2H518.3V74.6h274.1v54.6H684.2v320.1h-58.4V129.2z"/>
		<path class="st4" d="M840.8,435.9c-21.6-12.5-37.8-29.3-48.7-50.3c-10.9-21.1-16.3-44.6-16.3-70.7c0-24.6,5.1-47.2,15.3-67.7
			c10.2-20.5,25-36.8,44.4-49c19.4-12.1,42.6-18.2,69.3-18.2c35,0,62.8,10.3,83.5,30.8c20.7,20.5,31,47.9,31,82.2
			c0,9.3-1.1,19.3-3.2,30H833.1c3.6,29.6,13.5,51,29.7,64.2c16.2,13.2,36.8,19.8,61.8,19.8c28.2,0,54.1-6.1,77.6-18.2l5.4,45.5
			c-28.6,13.6-58.2,20.3-88.9,20.3C888.4,454.6,862.4,448.4,840.8,435.9z M962.1,284.9c0-16.8-4.8-30.5-14.5-41.2
			c-9.6-10.7-24.1-16.1-43.4-16.1c-36.1,0-58.7,19.1-68,57.3H962.1z"/>
		<path class="st4" d="M1113.6,436.7c-20.7-12-36.3-28.3-46.8-49c-10.5-20.7-15.8-43.9-15.8-69.6c0-26.4,5.2-50.1,15.5-70.9
			c10.3-20.9,26-37.4,47.1-49.5c21.1-12.1,46.9-18.2,77.6-18.2c27.5,0,51.4,5.4,71.7,16.1l-6.4,47.1c-20-10-41-15-63.2-15
			c-27.1,0-48.1,7.9-62.9,23.8c-14.8,15.9-22.2,37.7-22.2,65.6c0,27.1,7.4,48.9,22.2,65.3c14.8,16.4,35.6,24.6,62.4,24.6
			c22.5,0,43.9-5.5,64.2-16.6l6.4,46c-8.6,5.4-19.6,9.7-33.2,13.1c-13.6,3.4-27.5,5.1-41.8,5.1
			C1159.3,454.6,1134.3,448.7,1113.6,436.7z"/>
		<path class="st2" d="M1314.9,74.6h60l174.5,263.9V74.6h58.9v374.7H1559l-185.8-279.4v279.4h-58.4V74.6z"/>
		<path class="st4" d="M1720.4,436.2c-20.2-12.3-35.5-28.9-46-49.8c-10.5-20.9-15.8-44-15.8-69.3c0-25.3,5.3-48.4,15.8-69.3
			c10.5-20.9,25.9-37.5,46-49.8c20.2-12.3,44-18.5,71.5-18.5c27.1,0,50.8,6.2,70.9,18.5c20.2,12.3,35.6,28.9,46.3,49.8
			c10.7,20.9,16.1,44,16.1,69.3c0,25.3-5.4,48.4-16.1,69.3c-10.7,20.9-26.1,37.5-46.3,49.8c-20.2,12.3-43.8,18.5-70.9,18.5
			C1764.4,454.6,1740.5,448.5,1720.4,436.2z M1848,382.9c13.2-16.1,19.8-38,19.8-65.8c0-27.8-6.6-49.8-19.8-65.8
			c-13.2-16.1-31.9-24.1-56.2-24.1c-24.3,0-43,8-56.2,24.1c-13.2,16.1-19.8,38-19.8,65.8c0,27.8,6.6,49.8,19.8,65.8
			c13.2,16.1,31.9,24.1,56.2,24.1C1816.1,407,1834.8,399,1848,382.9z"/>
	</g>
</g>
</svg>
